<mxfile host="app.diagrams.net" modified="2024-03-18T13:19:22.685Z" agent="Mozilla/5.0 (Windows NT 10.0; Win64; x64) AppleWebKit/537.36 (KHTML, like Gecko) Chrome/122.0.0.0 Safari/537.36" etag="K7t5QFSgqsOE8qBdLDpv" version="22.1.16" type="google">
  <diagram name="CPU-design" id="KTfBh7jQai8peye6fw3c">
    <mxGraphModel grid="1" page="1" gridSize="10" guides="1" tooltips="1" connect="1" arrows="1" fold="1" pageScale="1" pageWidth="827" pageHeight="1169" math="0" shadow="0">
      <root>
        <mxCell id="0" />
        <mxCell id="1" parent="0" />
        <mxCell id="oQrNL4lD5W3z_ZlVwzVu-2" value="" style="rounded=0;whiteSpace=wrap;html=1;" vertex="1" parent="1">
          <mxGeometry x="78" y="40" width="682" height="900" as="geometry" />
        </mxCell>
        <mxCell id="oQrNL4lD5W3z_ZlVwzVu-3" value="" style="endArrow=none;html=1;rounded=0;entryX=0.001;entryY=0.333;entryDx=0;entryDy=0;entryPerimeter=0;exitX=1;exitY=0.333;exitDx=0;exitDy=0;exitPerimeter=0;" edge="1" parent="1" source="oQrNL4lD5W3z_ZlVwzVu-2" target="oQrNL4lD5W3z_ZlVwzVu-2">
          <mxGeometry width="50" height="50" relative="1" as="geometry">
            <mxPoint x="440" y="510" as="sourcePoint" />
            <mxPoint x="490" y="460" as="targetPoint" />
          </mxGeometry>
        </mxCell>
        <mxCell id="oQrNL4lD5W3z_ZlVwzVu-4" value="" style="endArrow=none;html=1;rounded=0;entryX=0.001;entryY=0.333;entryDx=0;entryDy=0;entryPerimeter=0;exitX=1;exitY=0.333;exitDx=0;exitDy=0;exitPerimeter=0;" edge="1" parent="1">
          <mxGeometry width="50" height="50" relative="1" as="geometry">
            <mxPoint x="759.5" y="650" as="sourcePoint" />
            <mxPoint x="78.5" y="650" as="targetPoint" />
          </mxGeometry>
        </mxCell>
        <mxCell id="oQrNL4lD5W3z_ZlVwzVu-5" value="&lt;font style=&quot;font-size: 18px;&quot;&gt;Application Layer&lt;/font&gt;" style="text;html=1;strokeColor=none;fillColor=none;align=center;verticalAlign=middle;whiteSpace=wrap;rounded=0;" vertex="1" parent="1">
          <mxGeometry x="324" y="60" width="180" height="30" as="geometry" />
        </mxCell>
        <mxCell id="oQrNL4lD5W3z_ZlVwzVu-6" value="&lt;font style=&quot;font-size: 18px;&quot;&gt;Application Programming Interface Layer&lt;/font&gt;" style="text;html=1;strokeColor=none;fillColor=none;align=center;verticalAlign=middle;whiteSpace=wrap;rounded=0;" vertex="1" parent="1">
          <mxGeometry x="254.5" y="360" width="329" height="30" as="geometry" />
        </mxCell>
        <mxCell id="oQrNL4lD5W3z_ZlVwzVu-7" value="&lt;font style=&quot;font-size: 18px;&quot;&gt;Hardware Abstraction Layer&lt;/font&gt;" style="text;html=1;strokeColor=none;fillColor=none;align=center;verticalAlign=middle;whiteSpace=wrap;rounded=0;" vertex="1" parent="1">
          <mxGeometry x="301" y="670" width="241" height="30" as="geometry" />
        </mxCell>
        <mxCell id="oQrNL4lD5W3z_ZlVwzVu-8" value="&lt;font style=&quot;font-size: 14px;&quot;&gt;ADS1115.c&lt;/font&gt;" style="rounded=0;whiteSpace=wrap;html=1;fillColor=#f8cecc;strokeColor=#b85450;" vertex="1" parent="1">
          <mxGeometry x="120" y="750" width="120" height="60" as="geometry" />
        </mxCell>
        <mxCell id="oQrNL4lD5W3z_ZlVwzVu-9" value="&lt;font style=&quot;font-size: 14px;&quot;&gt;SX1278.c&lt;/font&gt;" style="rounded=0;whiteSpace=wrap;html=1;fillColor=#f8cecc;strokeColor=#b85450;" vertex="1" parent="1">
          <mxGeometry x="354" y="750" width="120" height="60" as="geometry" />
        </mxCell>
        <mxCell id="oQrNL4lD5W3z_ZlVwzVu-10" value="&lt;font style=&quot;font-size: 14px;&quot;&gt;ioperipherals.c&lt;/font&gt;" style="rounded=0;whiteSpace=wrap;html=1;fillColor=#f8cecc;strokeColor=#b85450;" vertex="1" parent="1">
          <mxGeometry x="550" y="750" width="120" height="60" as="geometry" />
        </mxCell>
        <mxCell id="oQrNL4lD5W3z_ZlVwzVu-11" value="&lt;font style=&quot;font-size: 14px;&quot;&gt;stm32g431.c&lt;/font&gt;" style="rounded=0;whiteSpace=wrap;html=1;fillColor=#f8cecc;strokeColor=#b85450;" vertex="1" parent="1">
          <mxGeometry x="210" y="840" width="120" height="60" as="geometry" />
        </mxCell>
        <mxCell id="oQrNL4lD5W3z_ZlVwzVu-12" value="&lt;font style=&quot;font-size: 14px;&quot;&gt;30010_io.c&lt;/font&gt;" style="rounded=0;whiteSpace=wrap;html=1;fillColor=#f8cecc;strokeColor=#b85450;" vertex="1" parent="1">
          <mxGeometry x="470" y="840" width="120" height="60" as="geometry" />
        </mxCell>
        <mxCell id="oQrNL4lD5W3z_ZlVwzVu-13" value="&lt;font style=&quot;font-size: 14px;&quot;&gt;uartio.c&lt;/font&gt;" style="rounded=0;whiteSpace=wrap;html=1;fillColor=#d5e8d4;strokeColor=#82b366;" vertex="1" parent="1">
          <mxGeometry x="110" y="400" width="120" height="60" as="geometry" />
        </mxCell>
        <mxCell id="oQrNL4lD5W3z_ZlVwzVu-14" value="&lt;font style=&quot;font-size: 14px;&quot;&gt;ansi.c&lt;/font&gt;" style="rounded=0;whiteSpace=wrap;html=1;fillColor=#d5e8d4;strokeColor=#82b366;" vertex="1" parent="1">
          <mxGeometry x="120" y="510" width="120" height="60" as="geometry" />
        </mxCell>
        <mxCell id="oQrNL4lD5W3z_ZlVwzVu-15" value="&lt;font style=&quot;font-size: 14px;&quot;&gt;main.c&lt;/font&gt;" style="rounded=0;whiteSpace=wrap;html=1;fillColor=#dae8fc;strokeColor=#6c8ebf;" vertex="1" parent="1">
          <mxGeometry x="150" y="170" width="120" height="60" as="geometry" />
        </mxCell>
        <mxCell id="oQrNL4lD5W3z_ZlVwzVu-16" value="&lt;font style=&quot;font-size: 14px;&quot;&gt;mfield.c&lt;/font&gt;" style="rounded=0;whiteSpace=wrap;html=1;fillColor=#d5e8d4;strokeColor=#82b366;" vertex="1" parent="1">
          <mxGeometry x="361.5" y="410" width="120" height="60" as="geometry" />
        </mxCell>
        <mxCell id="KKLB8DnQ6OKgvL1sCO9A-26" value="Emil&lt;br&gt;" style="shape=umlActor;verticalLabelPosition=bottom;verticalAlign=top;html=1;outlineConnect=0;" vertex="1" parent="1">
          <mxGeometry x="-120" y="440" width="30" height="60" as="geometry" />
        </mxCell>
        <mxCell id="KKLB8DnQ6OKgvL1sCO9A-27" value="wow" style="whiteSpace=wrap;html=1;shape=mxgraph.basic.roundRectCallout;dx=30;dy=15;size=5;boundedLbl=1;" vertex="1" parent="1">
          <mxGeometry x="-90" y="370" width="100" height="60" as="geometry" />
        </mxCell>
        <mxCell id="oQrNL4lD5W3z_ZlVwzVu-17" value="&lt;font style=&quot;font-size: 14px;&quot;&gt;tilt.c&lt;/font&gt;" style="rounded=0;whiteSpace=wrap;html=1;fillColor=#d5e8d4;strokeColor=#82b366;" vertex="1" parent="1">
          <mxGeometry x="580" y="410" width="120" height="60" as="geometry" />
        </mxCell>
        <mxCell id="oQrNL4lD5W3z_ZlVwzVu-19" value="&lt;font style=&quot;font-size: 14px;&quot;&gt;powercontrol.c&lt;/font&gt;" style="rounded=0;whiteSpace=wrap;html=1;fillColor=#d5e8d4;strokeColor=#82b366;" vertex="1" parent="1">
          <mxGeometry x="570" y="525" width="120" height="60" as="geometry" />
        </mxCell>
        <mxCell id="oQrNL4lD5W3z_ZlVwzVu-21" value="&lt;font style=&quot;font-size: 14px;&quot;&gt;com.c&lt;/font&gt;" style="rounded=0;whiteSpace=wrap;html=1;fillColor=#d5e8d4;strokeColor=#82b366;" vertex="1" parent="1">
          <mxGeometry x="359" y="520" width="120" height="60" as="geometry" />
        </mxCell>
        <mxCell id="KKLB8DnQ6OKgvL1sCO9A-32" value="" style="verticalLabelPosition=bottom;verticalAlign=top;html=1;shape=mxgraph.basic.smiley" vertex="1" parent="1">
          <mxGeometry x="-120" y="425" width="30" height="30" as="geometry" />
        </mxCell>
      </root>
    </mxGraphModel>
  </diagram>
</mxfile>
